<svg width="151" height="151" viewBox="0 0 151 151" fill="none" xmlns="http://www.w3.org/2000/svg">
<path d="M75.5 138.417C92.8738 138.417 108.603 131.374 119.989 119.989C131.374 108.603 138.417 92.8737 138.417 75.4999C138.417 58.1261 131.374 42.3969 119.989 31.0111C108.603 19.6255 92.8738 12.5833 75.5 12.5833C58.1262 12.5833 42.397 19.6255 31.0112 31.0111C19.6255 42.3969 12.5833 58.1261 12.5833 75.4999C12.5833 92.8737 19.6255 108.603 31.0112 119.989C42.397 131.374 58.1262 138.417 75.5 138.417Z" fill="#FF8A1E" stroke="#21222B" stroke-width="11.7795" stroke-linejoin="round"/>
<path d="M50.3333 75.5L69.2083 94.375L106.958 56.625" fill="#FF8A1E"/>
<path d="M50.3333 75.5L69.2083 94.375L106.958 56.625" stroke="#FF9F46" stroke-width="11.7795" stroke-linecap="round" stroke-linejoin="round"/>
</svg>
