<svg width="884" height="603" viewBox="0 0 884 603" fill="none" xmlns="http://www.w3.org/2000/svg">
<g filter="url(#filter0_d_1_57)">
<rect width="874" height="593" rx="20" fill="#21222B"/>
<rect x="618" y="259" width="241" height="173" rx="20" fill="#30323E"/>
<rect x="539" y="118" width="241" height="30" rx="15" fill="#30323E"/>
<rect x="539" y="157" width="241" height="30" rx="15" fill="#30323E"/>
<rect x="539" y="196" width="241" height="30" rx="15" fill="#30323E"/>
<rect x="625" y="270" width="110" height="110" rx="55" fill="#21222B"/>
<rect x="17" y="68" width="142" height="508" rx="20" fill="#30323E"/>
<path d="M466 473C466 461.954 474.954 453 486 453H837C848.046 453 857 461.954 857 473V593H466V473Z" fill="#30323E"/>
<rect x="334" y="259" width="264" height="173" rx="20" fill="#30323E"/>
<path d="M186 471C186 459.954 194.954 451 206 451H430C441.046 451 450 459.954 450 471V593H186V471Z" fill="#30323E"/>
<rect x="17" y="15" width="842" height="41" rx="20" fill="#2D3A7B"/>
<rect x="361" y="395" width="66" height="22" rx="10" fill="#6D7082"/>
<rect x="538" y="365" width="42" height="22" rx="10" fill="#6D7082"/>
<rect x="348" y="365" width="184" height="22" rx="10" fill="#6D7082"/>
<rect x="204" y="472" width="190" height="22" rx="10" fill="#6D7082"/>
<rect x="204" y="502" width="66" height="22" rx="10" fill="#6D7082"/>
<rect x="204" y="532" width="87" height="22" rx="10" fill="#6D7082"/>
<rect x="27" y="163" width="87" height="22" rx="10" fill="#6D7082"/>
<rect x="27" y="223" width="97" height="22" rx="10" fill="#6D7082"/>
<rect x="27" y="253" width="78" height="22" rx="10" fill="#6D7082"/>
<rect x="27" y="283" width="56" height="22" rx="10" fill="#6D7082"/>
<rect x="27" y="313" width="42" height="22" rx="10" fill="#6D7082"/>
<rect x="75" y="313" width="42" height="22" rx="10" fill="#6D7082"/>
<rect x="27" y="193" width="56" height="22" rx="10" fill="#6D7082"/>
<rect x="27" y="80" width="122" height="64" rx="10" fill="#21222B"/>
<rect x="27" y="498" width="122" height="64" rx="10" fill="#6D7082"/>
<rect x="348" y="276" width="136" height="71" rx="10" fill="#21222B"/>
<rect x="195" y="115" width="57" height="100" rx="10" fill="#3A4DB6"/>
<rect x="195" y="115" width="57" height="100" rx="10" fill="#3A4DB6"/>
<rect x="195" y="115" width="57" height="100" rx="10" fill="#3A4DB6"/>
<rect x="327" y="128" width="57" height="87" rx="10" fill="#3A4DB6"/>
<rect x="327" y="128" width="57" height="87" rx="10" fill="#3A4DB6"/>
<rect x="327" y="128" width="57" height="87" rx="10" fill="#3A4DB6"/>
<rect x="539" y="118" width="136" height="30" rx="15" fill="#3A4DB6"/>
<rect x="539" y="118" width="136" height="30" rx="15" fill="#3A4DB6"/>
<rect x="539" y="118" width="136" height="30" rx="15" fill="#3A4DB6"/>
<rect x="539" y="196" width="54" height="30" rx="15" fill="#3A4DB6"/>
<rect x="539" y="196" width="54" height="30" rx="15" fill="#3A4DB6"/>
<rect x="539" y="196" width="54" height="30" rx="15" fill="#3A4DB6"/>
<rect x="277" y="502" width="61" height="22" rx="10" fill="#6D7082"/>
<rect x="519" y="467" width="61" height="22" rx="10" fill="#6D7082"/>
<rect x="635" y="467" width="61" height="22" rx="10" fill="#6D7082"/>
<rect x="751" y="467" width="61" height="22" rx="10" fill="#6D7082"/>
<rect x="204" y="562" width="61" height="22" rx="10" fill="#6D7082"/>
<rect x="433" y="395" width="115" height="22" rx="10" fill="#6D7082"/>
<rect x="629" y="391" width="51" height="22" rx="10" fill="#6D7082"/>
<rect x="686" y="391" width="76" height="22" rx="10" fill="#6D7082"/>
<rect x="186" y="259" width="130" height="173" rx="20" fill="#30323E"/>
<path d="M188.5 355.5C194.643 282.974 199.286 282.974 205.429 355.5C209.727 384.484 215.87 384.484 223.857 355.5C230 326.516 236.143 326.516 242.286 355.5C253.482 432.167 259.624 432.167 260.714 355.5C266.857 278.833 273 278.833 279.143 355.5C283.279 382.08 289.422 382.08 297.571 355.5C303.714 328.92 307.357 328.92 313.5 355.5" stroke="#4C75F2" stroke-width="5"/>
<path d="M650 362C650 345.431 663.431 332 680 332V332C696.569 332 710 345.431 710 362V362H650V362Z" fill="#6D7082"/>
<rect x="660" y="288" width="40" height="40" rx="20" fill="#6D7082"/>
<rect x="769" y="306" width="55" height="55" rx="27.5" fill="#FFAE63"/>
<path d="M796.5 313L815.986 346.75H777.014L796.5 313Z" fill="#FF8A1E"/>
<path d="M797.848 337.312H794.704L794.128 325.864H798.424L797.848 337.312ZM794.128 341.32C794.128 340.584 794.336 340.072 794.752 339.784C795.168 339.48 795.672 339.328 796.264 339.328C796.84 339.328 797.328 339.48 797.728 339.784C798.144 340.072 798.352 340.584 798.352 341.32C798.352 342.024 798.144 342.536 797.728 342.856C797.328 343.16 796.84 343.312 796.264 343.312C795.672 343.312 795.168 343.16 794.752 342.856C794.336 342.536 794.128 342.024 794.128 341.32Z" fill="black"/>
<rect x="510" y="285" width="55" height="55" rx="27.5" fill="#A0B0FF"/>
<rect x="509" y="504" width="85" height="85" rx="42.5" fill="#21222B"/>
<path d="M552 504V504C575.196 504 594 522.804 594 546V547C594 570.196 575.196 589 552 589V589V504Z" fill="#FF9F46"/>
<rect x="520" y="515" width="63" height="63" rx="31.5" fill="#30323E"/>
<rect x="623" y="504" width="85" height="85" rx="42.5" fill="#21222B"/>
<rect x="737" y="504" width="85" height="85" rx="42.5" fill="#21222B"/>
<path d="M780 504V504C803.196 504 822 522.804 822 546V547C822 570.196 803.196 589 780 589V589V504Z" fill="#3A4DB6"/>
<path d="M822 547V547C822 570.196 803.196 589 780 589H779C755.804 589 737 570.196 737 547V547H822Z" fill="#3A4DB6"/>
<rect x="634" y="515" width="63" height="63" rx="31.5" fill="#30323E"/>
<rect x="748" y="515" width="63" height="63" rx="31.5" fill="#30323E"/>
<rect x="261" y="144" width="57" height="71" rx="10" fill="#A0B0FF"/>
<rect x="393" y="169" width="57" height="46" rx="10" fill="#A0B0FF"/>
<rect x="393" y="169" width="57" height="46" rx="10" fill="#A0B0FF"/>
<rect x="539" y="157" width="189" height="30" rx="15" fill="#A0B0FF"/>
<rect x="523" y="306" width="30" height="26" rx="5" fill="#D9D9D9"/>
<path d="M527 299C527 294.582 530.582 291 535 291H541C545.418 291 549 294.582 549 299V312C549 314.761 546.761 317 544 317H532C529.239 317 527 314.761 527 312V299Z" fill="#D9D9D9"/>
<path d="M531 299C531 296.239 533.239 294 536 294H540C542.761 294 545 296.239 545 299V306H531V299Z" fill="#A0B0FF"/>
<rect width="8" height="8" rx="4" transform="matrix(-1 0 0 1 542 314)" fill="#30323E"/>
<path d="M536 320H540V325C540 326.105 539.105 327 538 327V327C536.895 327 536 326.105 536 325V320Z" fill="#30323E"/>
<g filter="url(#filter1_d_1_57)">
<rect x="19" y="17.3591" width="36" height="36" rx="18" fill="#FF9F46"/>
</g>
<rect x="22" y="20.3591" width="30" height="30" rx="15" fill="#FF8A1E"/>
<path d="M31.4775 21.3432C35.5331 17.2877 42.1084 17.2877 46.164 21.3432L50.9815 26.1608C55.0371 30.2164 55.0371 36.7917 50.9816 40.8473V40.8473L31.4775 21.3432V21.3432Z" fill="#FF9F46"/>
<path d="M29 26.3591H46V37.8591C46 42.5535 42.1944 46.3591 37.5 46.3591V46.3591C32.8056 46.3591 29 42.5535 29 37.8591V26.3591Z" fill="#A0B0FF"/>
<path d="M29 26.3591H36.517V26.3591C36.5093 26.3591 36.5054 26.3684 36.5109 26.3738L46.0052 35.8525L46.0092 37.8377C46.0184 42.5412 42.2081 46.3591 37.5046 46.3591V46.3591C32.8076 46.3591 29 42.5514 29 37.8545V26.3591Z" fill="#4C75F2"/>
</g>
<defs>
<filter id="filter0_d_1_57" x="0" y="0" width="884" height="603" filterUnits="userSpaceOnUse" color-interpolation-filters="sRGB">
<feFlood flood-opacity="0" result="BackgroundImageFix"/>
<feColorMatrix in="SourceAlpha" type="matrix" values="0 0 0 0 0 0 0 0 0 0 0 0 0 0 0 0 0 0 127 0" result="hardAlpha"/>
<feOffset dx="6" dy="6"/>
<feGaussianBlur stdDeviation="2"/>
<feComposite in2="hardAlpha" operator="out"/>
<feColorMatrix type="matrix" values="0 0 0 0 0 0 0 0 0 0 0 0 0 0 0 0 0 0 0.25 0"/>
<feBlend mode="normal" in2="BackgroundImageFix" result="effect1_dropShadow_1_57"/>
<feBlend mode="normal" in="SourceGraphic" in2="effect1_dropShadow_1_57" result="shape"/>
</filter>
<filter id="filter1_d_1_57" x="17" y="15.3591" width="44" height="44" filterUnits="userSpaceOnUse" color-interpolation-filters="sRGB">
<feFlood flood-opacity="0" result="BackgroundImageFix"/>
<feColorMatrix in="SourceAlpha" type="matrix" values="0 0 0 0 0 0 0 0 0 0 0 0 0 0 0 0 0 0 127 0" result="hardAlpha"/>
<feOffset dx="2" dy="2"/>
<feGaussianBlur stdDeviation="2"/>
<feComposite in2="hardAlpha" operator="out"/>
<feColorMatrix type="matrix" values="0 0 0 0 0 0 0 0 0 0 0 0 0 0 0 0 0 0 0.25 0"/>
<feBlend mode="normal" in2="BackgroundImageFix" result="effect1_dropShadow_1_57"/>
<feBlend mode="normal" in="SourceGraphic" in2="effect1_dropShadow_1_57" result="shape"/>
</filter>
</defs>
</svg>
