<svg width="44" height="46" viewBox="0 0 44 46" fill="none" xmlns="http://www.w3.org/2000/svg">
<g filter="url(#filter0_d_57_1848)">
<rect x="2" y="3.35907" width="36" height="36" rx="18" fill="#FF9F46"/>
</g>
<rect x="5" y="6.35907" width="30" height="30" rx="15" fill="#FF8A1E"/>
<path d="M14.4775 7.34325C18.5331 3.28768 25.1084 3.28768 29.164 7.34325L33.9815 12.1608C38.0371 16.2164 38.0371 22.7917 33.9816 26.8473V26.8473L14.4775 7.34325V7.34325Z" fill="#FF9F46"/>
<path d="M12 12.3591H29V23.8591C29 28.5535 25.1944 32.3591 20.5 32.3591V32.3591C15.8056 32.3591 12 28.5535 12 23.8591V12.3591Z" fill="#A0B0FF"/>
<path d="M12 12.3591H19.517V12.3591C19.5093 12.3591 19.5054 12.3684 19.5109 12.3738L29.0052 21.8525L29.0092 23.8377C29.0184 28.5412 25.2081 32.3591 20.5046 32.3591V32.3591C15.8076 32.3591 12 28.5514 12 23.8545V12.3591Z" fill="#4C75F2"/>
<defs>
<filter id="filter0_d_57_1848" x="0" y="1.35907" width="44" height="44" filterUnits="userSpaceOnUse" color-interpolation-filters="sRGB">
<feFlood flood-opacity="0" result="BackgroundImageFix"/>
<feColorMatrix in="SourceAlpha" type="matrix" values="0 0 0 0 0 0 0 0 0 0 0 0 0 0 0 0 0 0 127 0" result="hardAlpha"/>
<feOffset dx="2" dy="2"/>
<feGaussianBlur stdDeviation="2"/>
<feComposite in2="hardAlpha" operator="out"/>
<feColorMatrix type="matrix" values="0 0 0 0 0 0 0 0 0 0 0 0 0 0 0 0 0 0 0.25 0"/>
<feBlend mode="normal" in2="BackgroundImageFix" result="effect1_dropShadow_57_1848"/>
<feBlend mode="normal" in="SourceGraphic" in2="effect1_dropShadow_57_1848" result="shape"/>
</filter>
</defs>
</svg>
