<svg id="visual" viewBox="0 0 1440 2048" width="1440" height="2048" xmlns="http://www.w3.org/2000/svg" xmlns:xlink="http://www.w3.org/1999/xlink" version="1.1"><g stroke-width="1" stroke-linejoin="bevel"><path d="M778.5 1050L803.5 1114L902.4 1026Z" fill="#fefefe" stroke="#fefefe"></path><path d="M803.5 1114L869.4 1189L902.4 1026Z" fill="#fbfbfb" stroke="#fbfbfb"></path><path d="M902.4 1026L799.5 931L778.5 1050Z" fill="#f7f7f7" stroke="#f7f7f7"></path><path d="M1035.3 995L937.4 905L902.4 1026Z" fill="#fdfdfd" stroke="#fdfdfd"></path><path d="M902.4 1026L937.4 905L799.5 931Z" fill="#f5f5f5" stroke="#f5f5f5"></path><path d="M652.5 1261L806.5 1254L803.5 1114Z" fill="#fafafa" stroke="#fafafa"></path><path d="M803.5 1114L806.5 1254L869.4 1189Z" fill="#fafafa" stroke="#fafafa"></path><path d="M1049.3 1165L1035.3 995L902.4 1026Z" fill="#f9f9f9" stroke="#f9f9f9"></path><path d="M791.5 721L694.5 892L799.5 931Z" fill="#fefefe" stroke="#fefefe"></path><path d="M799.5 931L694.5 892L778.5 1050Z" fill="#f9f9f9" stroke="#f9f9f9"></path><path d="M778.5 1050L606.5 1124L803.5 1114Z" fill="#f4f4f4" stroke="#f4f4f4"></path><path d="M914.4 1308L1049.3 1165L869.4 1189Z" fill="#fbfbfb" stroke="#fbfbfb"></path><path d="M869.4 1189L1049.3 1165L902.4 1026Z" fill="#fafafa" stroke="#fafafa"></path><path d="M694.5 892L621.5 985L778.5 1050Z" fill="#f8f8f8" stroke="#f8f8f8"></path><path d="M621.5 985L606.5 1124L778.5 1050Z" fill="#f5f5f5" stroke="#f5f5f5"></path><path d="M806.5 1254L914.4 1308L869.4 1189Z" fill="#fdfdfd" stroke="#fdfdfd"></path><path d="M606.5 1124L652.5 1261L803.5 1114Z" fill="#fafafa" stroke="#fafafa"></path><path d="M806.5 1254L768.5 1402L914.4 1308Z" fill="#fbfbfb" stroke="#fbfbfb"></path><path d="M1035.3 995L1074.3 904L937.4 905Z" fill="#fdfdfd" stroke="#fdfdfd"></path><path d="M937.4 905L896.4 776L799.5 931Z" fill="#f7f7f7" stroke="#f7f7f7"></path><path d="M1175.2 937L1074.3 904L1035.3 995Z" fill="#fefefe" stroke="#fefefe"></path><path d="M1060.3 772L896.4 776L937.4 905Z" fill="#fbfbfb" stroke="#fbfbfb"></path><path d="M914.4 1308L1072.3 1259L1049.3 1165Z" fill="#fafafa" stroke="#fafafa"></path><path d="M1049.3 1165L1147.2 1129L1035.3 995Z" fill="#f8f8f8" stroke="#f8f8f8"></path><path d="M1072.3 1259L1147.2 1129L1049.3 1165Z" fill="#fbfbfb" stroke="#fbfbfb"></path><path d="M606.5 1124L565.6 1198L652.5 1261Z" fill="#f9f9f9" stroke="#f9f9f9"></path><path d="M437.7 1126L565.6 1198L606.5 1124Z" fill="#f9f9f9" stroke="#f9f9f9"></path><path d="M1147.2 1129L1167.2 1070L1035.3 995Z" fill="#fdfdfd" stroke="#fdfdfd"></path><path d="M791.5 721L667.5 770L694.5 892Z" fill="#ffffff" stroke="#ffffff"></path><path d="M694.5 892L516.6 908L621.5 985Z" fill="#fbfbfb" stroke="#fbfbfb"></path><path d="M621.5 985L500.6 1011L606.5 1124Z" fill="#fdfdfd" stroke="#fdfdfd"></path><path d="M896.4 776L791.5 721L799.5 931Z" fill="#ffffff" stroke="#ffffff"></path><path d="M516.6 908L500.6 1011L621.5 985Z" fill="#fbfbfb" stroke="#fbfbfb"></path><path d="M620.5 1428L768.5 1402L652.5 1261Z" fill="#f3f3f3" stroke="#f3f3f3"></path><path d="M652.5 1261L768.5 1402L806.5 1254Z" fill="#f9f9f9" stroke="#f9f9f9"></path><path d="M914.4 1308L1032.3 1394L1072.3 1259Z" fill="#fefefe" stroke="#fefefe"></path><path d="M1167.2 1070L1175.2 937L1035.3 995Z" fill="#fbfbfb" stroke="#fbfbfb"></path><path d="M1074.3 904L1060.3 772L937.4 905Z" fill="#f4f4f4" stroke="#f4f4f4"></path><path d="M1185.2 765L1060.3 772L1074.3 904Z" fill="#f8f8f8" stroke="#f8f8f8"></path><path d="M913.4 636L804.5 646L791.5 721Z" fill="#ffffff" stroke="#ffffff"></path><path d="M504.6 813L516.6 908L694.5 892Z" fill="#fbfbfb" stroke="#fbfbfb"></path><path d="M768.5 1402L939.4 1412L914.4 1308Z" fill="#f9f9f9" stroke="#f9f9f9"></path><path d="M437.7 1126L540.6 1267L565.6 1198Z" fill="#f9f9f9" stroke="#f9f9f9"></path><path d="M565.6 1198L540.6 1267L652.5 1261Z" fill="#fafafa" stroke="#fafafa"></path><path d="M939.4 1412L1032.3 1394L914.4 1308Z" fill="#fafafa" stroke="#fafafa"></path><path d="M1072.3 1259L1209.2 1259L1147.2 1129Z" fill="#f7f7f7" stroke="#f7f7f7"></path><path d="M353.7 1039L437.7 1126L500.6 1011Z" fill="#ffffff" stroke="#ffffff"></path><path d="M500.6 1011L437.7 1126L606.5 1124Z" fill="#fdfdfd" stroke="#fdfdfd"></path><path d="M1210.2 1389L1209.2 1259L1072.3 1259Z" fill="#f4f4f4" stroke="#f4f4f4"></path><path d="M1147.2 1129L1321.1 1134L1167.2 1070Z" fill="#f8f8f8" stroke="#f8f8f8"></path><path d="M1167.2 1070L1344.1 992L1175.2 937Z" fill="#ffffff" stroke="#ffffff"></path><path d="M913.4 636L791.5 721L896.4 776Z" fill="#f3f3f3" stroke="#f3f3f3"></path><path d="M791.5 721L638.5 646L667.5 770Z" fill="#f4f4f4" stroke="#f4f4f4"></path><path d="M667.5 770L504.6 813L694.5 892Z" fill="#ffffff" stroke="#ffffff"></path><path d="M516.6 908L379.7 909L500.6 1011Z" fill="#f4f4f4" stroke="#f4f4f4"></path><path d="M499.6 648L504.6 813L667.5 770Z" fill="#f8f8f8" stroke="#f8f8f8"></path><path d="M546.6 1426L620.5 1428L540.6 1267Z" fill="#f3f3f3" stroke="#f3f3f3"></path><path d="M540.6 1267L620.5 1428L652.5 1261Z" fill="#f8f8f8" stroke="#f8f8f8"></path><path d="M768.5 1402L813.5 1498L939.4 1412Z" fill="#f3f3f3" stroke="#f3f3f3"></path><path d="M1060.3 772L913.4 636L896.4 776Z" fill="#f3f3f3" stroke="#f3f3f3"></path><path d="M655.5 1537L813.5 1498L768.5 1402Z" fill="#f8f8f8" stroke="#f8f8f8"></path><path d="M939.4 1412L1074.3 1494L1032.3 1394Z" fill="#f7f7f7" stroke="#f7f7f7"></path><path d="M1175.2 937L1185.2 765L1074.3 904Z" fill="#f7f7f7" stroke="#f7f7f7"></path><path d="M1060.3 772L1091.3 646L913.4 636Z" fill="#f7f7f7" stroke="#f7f7f7"></path><path d="M1343.1 779L1185.2 765L1175.2 937Z" fill="#fbfbfb" stroke="#fbfbfb"></path><path d="M652.5 557L638.5 646L804.5 646Z" fill="#fdfdfd" stroke="#fdfdfd"></path><path d="M804.5 646L638.5 646L791.5 721Z" fill="#fefefe" stroke="#fefefe"></path><path d="M391.7 1311L546.6 1426L540.6 1267Z" fill="#fefefe" stroke="#fefefe"></path><path d="M620.5 1428L655.5 1537L768.5 1402Z" fill="#f3f3f3" stroke="#f3f3f3"></path><path d="M1210.2 1389L1270.1 1269L1209.2 1259Z" fill="#f7f7f7" stroke="#f7f7f7"></path><path d="M1209.2 1259L1321.1 1134L1147.2 1129Z" fill="#f9f9f9" stroke="#f9f9f9"></path><path d="M1270.1 1269L1321.1 1134L1209.2 1259Z" fill="#f7f7f7" stroke="#f7f7f7"></path><path d="M1185.2 765L1091.3 646L1060.3 772Z" fill="#ffffff" stroke="#ffffff"></path><path d="M386.7 729L379.7 909L504.6 813Z" fill="#fefefe" stroke="#fefefe"></path><path d="M504.6 813L379.7 909L516.6 908Z" fill="#fbfbfb" stroke="#fbfbfb"></path><path d="M955.4 1559L1074.3 1494L939.4 1412Z" fill="#f7f7f7" stroke="#f7f7f7"></path><path d="M1032.3 1394L1210.2 1389L1072.3 1259Z" fill="#ffffff" stroke="#ffffff"></path><path d="M1074.3 1494L1210.2 1389L1032.3 1394Z" fill="#f8f8f8" stroke="#f8f8f8"></path><path d="M379.7 909L353.7 1039L500.6 1011Z" fill="#fbfbfb" stroke="#fbfbfb"></path><path d="M437.7 1126L391.7 1311L540.6 1267Z" fill="#f9f9f9" stroke="#f9f9f9"></path><path d="M1321.1 1134L1344.1 992L1167.2 1070Z" fill="#f9f9f9" stroke="#f9f9f9"></path><path d="M900.4 490L788.5 554L913.4 636Z" fill="#f3f3f3" stroke="#f3f3f3"></path><path d="M913.4 636L788.5 554L804.5 646Z" fill="#f9f9f9" stroke="#f9f9f9"></path><path d="M792.5 1619L955.4 1559L813.5 1498Z" fill="#ffffff" stroke="#ffffff"></path><path d="M813.5 1498L955.4 1559L939.4 1412Z" fill="#fefefe" stroke="#fefefe"></path><path d="M557.6 1522L655.5 1537L620.5 1428Z" fill="#ffffff" stroke="#ffffff"></path><path d="M288.8 1268L391.7 1311L437.7 1126Z" fill="#f7f7f7" stroke="#f7f7f7"></path><path d="M546.6 1426L557.6 1522L620.5 1428Z" fill="#f8f8f8" stroke="#f8f8f8"></path><path d="M1344.1 992L1354.1 929L1175.2 937Z" fill="#f7f7f7" stroke="#f7f7f7"></path><path d="M1185.2 765L1175.2 626L1091.3 646Z" fill="#f9f9f9" stroke="#f9f9f9"></path><path d="M652.5 557L499.6 648L638.5 646Z" fill="#f7f7f7" stroke="#f7f7f7"></path><path d="M638.5 646L499.6 648L667.5 770Z" fill="#ffffff" stroke="#ffffff"></path><path d="M788.5 554L652.5 557L804.5 646Z" fill="#fafafa" stroke="#fafafa"></path><path d="M401.7 1533L557.6 1522L546.6 1426Z" fill="#f5f5f5" stroke="#f5f5f5"></path><path d="M1288.1 595L1175.2 626L1185.2 765Z" fill="#f5f5f5" stroke="#f5f5f5"></path><path d="M1041.3 468L900.4 490L913.4 636Z" fill="#ffffff" stroke="#ffffff"></path><path d="M379.7 909L300.8 991L353.7 1039Z" fill="#ffffff" stroke="#ffffff"></path><path d="M250.8 1174L288.8 1268L437.7 1126Z" fill="#f3f3f3" stroke="#f3f3f3"></path><path d="M274.8 870L300.8 991L379.7 909Z" fill="#f8f8f8" stroke="#f8f8f8"></path><path d="M626.5 1642L792.5 1619L655.5 1537Z" fill="#f9f9f9" stroke="#f9f9f9"></path><path d="M655.5 1537L792.5 1619L813.5 1498Z" fill="#fafafa" stroke="#fafafa"></path><path d="M499.6 648L386.7 729L504.6 813Z" fill="#f9f9f9" stroke="#f9f9f9"></path><path d="M1354.1 929L1343.1 779L1175.2 937Z" fill="#f7f7f7" stroke="#f7f7f7"></path><path d="M1041.3 468L913.4 636L1091.3 646Z" fill="#fdfdfd" stroke="#fdfdfd"></path><path d="M639.5 400L557.6 468L652.5 557Z" fill="#f3f3f3" stroke="#f3f3f3"></path><path d="M930.4 1704L1002.3 1619L955.4 1559Z" fill="#f8f8f8" stroke="#f8f8f8"></path><path d="M955.4 1559L1002.3 1619L1074.3 1494Z" fill="#fbfbfb" stroke="#fbfbfb"></path><path d="M1074.3 1494L1182.2 1559L1210.2 1389Z" fill="#f4f4f4" stroke="#f4f4f4"></path><path d="M250.8 1174L437.7 1126L353.7 1039Z" fill="#fbfbfb" stroke="#fbfbfb"></path><path d="M391.7 1311L371.7 1454L546.6 1426Z" fill="#f4f4f4" stroke="#f4f4f4"></path><path d="M1321.1 1134L1440 1052L1344.1 992Z" fill="#f8f8f8" stroke="#f8f8f8"></path><path d="M1344.1 992L1440 940L1354.1 929Z" fill="#f9f9f9" stroke="#f9f9f9"></path><path d="M1354.1 929L1440 778L1343.1 779Z" fill="#fafafa" stroke="#fafafa"></path><path d="M1440 1150L1440 1052L1321.1 1134Z" fill="#fdfdfd" stroke="#fdfdfd"></path><path d="M1440 1150L1321.1 1134L1440 1245Z" fill="#fafafa" stroke="#fafafa"></path><path d="M499.6 648L395.7 664L386.7 729Z" fill="#fbfbfb" stroke="#fbfbfb"></path><path d="M307.8 742L274.8 870L379.7 909Z" fill="#ffffff" stroke="#ffffff"></path><path d="M376.7 537L395.7 664L499.6 648Z" fill="#f7f7f7" stroke="#f7f7f7"></path><path d="M307.8 742L379.7 909L386.7 729Z" fill="#ffffff" stroke="#ffffff"></path><path d="M300.8 991L250.8 1174L353.7 1039Z" fill="#fbfbfb" stroke="#fbfbfb"></path><path d="M1002.3 1619L1182.2 1559L1074.3 1494Z" fill="#f8f8f8" stroke="#f8f8f8"></path><path d="M1440 1245L1321.1 1134L1270.1 1269Z" fill="#f8f8f8" stroke="#f8f8f8"></path><path d="M1336.1 1428L1270.1 1269L1210.2 1389Z" fill="#f8f8f8" stroke="#f8f8f8"></path><path d="M168.9 1028L250.8 1174L300.8 991Z" fill="#fbfbfb" stroke="#fbfbfb"></path><path d="M1440 1052L1440 940L1344.1 992Z" fill="#f3f3f3" stroke="#f3f3f3"></path><path d="M1326.1 1505L1336.1 1428L1210.2 1389Z" fill="#f9f9f9" stroke="#f9f9f9"></path><path d="M300.8 1436L371.7 1454L391.7 1311Z" fill="#fdfdfd" stroke="#fdfdfd"></path><path d="M557.6 1522L626.5 1642L655.5 1537Z" fill="#f5f5f5" stroke="#f5f5f5"></path><path d="M531.6 1671L626.5 1642L557.6 1522Z" fill="#fafafa" stroke="#fafafa"></path><path d="M792.5 1619L930.4 1704L955.4 1559Z" fill="#f3f3f3" stroke="#f3f3f3"></path><path d="M1336.1 1428L1440 1245L1270.1 1269Z" fill="#fafafa" stroke="#fafafa"></path><path d="M283.8 686L307.8 742L386.7 729Z" fill="#ffffff" stroke="#ffffff"></path><path d="M1197.2 522L1041.3 468L1091.3 646Z" fill="#f8f8f8" stroke="#f8f8f8"></path><path d="M1197.2 522L1091.3 646L1175.2 626Z" fill="#f8f8f8" stroke="#f8f8f8"></path><path d="M1440 674L1288.1 595L1343.1 779Z" fill="#f9f9f9" stroke="#f9f9f9"></path><path d="M1343.1 779L1288.1 595L1185.2 765Z" fill="#f8f8f8" stroke="#f8f8f8"></path><path d="M1288.1 595L1197.2 522L1175.2 626Z" fill="#fdfdfd" stroke="#fdfdfd"></path><path d="M266.8 1503L401.7 1533L371.7 1454Z" fill="#f7f7f7" stroke="#f7f7f7"></path><path d="M371.7 1454L401.7 1533L546.6 1426Z" fill="#f7f7f7" stroke="#f7f7f7"></path><path d="M916.4 1773L930.4 1704L792.5 1619Z" fill="#ffffff" stroke="#ffffff"></path><path d="M1002.3 1619L1219.2 1686L1182.2 1559Z" fill="#fefefe" stroke="#fefefe"></path><path d="M1182.2 1559L1326.1 1505L1210.2 1389Z" fill="#f4f4f4" stroke="#f4f4f4"></path><path d="M1336.1 1428L1440 1439L1440 1245Z" fill="#fefefe" stroke="#fefefe"></path><path d="M1288.1 1692L1326.1 1505L1182.2 1559Z" fill="#fefefe" stroke="#fefefe"></path><path d="M639.5 400L652.5 557L788.5 554Z" fill="#f8f8f8" stroke="#f8f8f8"></path><path d="M652.5 557L557.6 468L499.6 648Z" fill="#f3f3f3" stroke="#f3f3f3"></path><path d="M395.7 664L283.8 686L386.7 729Z" fill="#fefefe" stroke="#fefefe"></path><path d="M819.5 393L788.5 554L900.4 490Z" fill="#ffffff" stroke="#ffffff"></path><path d="M1440 940L1440 778L1354.1 929Z" fill="#fafafa" stroke="#fafafa"></path><path d="M266.8 1503L300.8 1436L129.9 1384Z" fill="#f3f3f3" stroke="#f3f3f3"></path><path d="M288.8 1268L300.8 1436L391.7 1311Z" fill="#fefefe" stroke="#fefefe"></path><path d="M874.4 372L819.5 393L900.4 490Z" fill="#fefefe" stroke="#fefefe"></path><path d="M376.7 537L283.8 686L395.7 664Z" fill="#fefefe" stroke="#fefefe"></path><path d="M307.8 742L140.9 751L274.8 870Z" fill="#f8f8f8" stroke="#f8f8f8"></path><path d="M170.9 943L168.9 1028L300.8 991Z" fill="#f4f4f4" stroke="#f4f4f4"></path><path d="M170.9 943L300.8 991L274.8 870Z" fill="#fdfdfd" stroke="#fdfdfd"></path><path d="M129.9 1384L300.8 1436L288.8 1268Z" fill="#f5f5f5" stroke="#f5f5f5"></path><path d="M140.9 751L170.9 943L274.8 870Z" fill="#fafafa" stroke="#fafafa"></path><path d="M401.7 1533L531.6 1671L557.6 1522Z" fill="#f4f4f4" stroke="#f4f4f4"></path><path d="M743.5 1836L916.4 1773L792.5 1619Z" fill="#ffffff" stroke="#ffffff"></path><path d="M404.7 1654L531.6 1671L401.7 1533Z" fill="#f8f8f8" stroke="#f8f8f8"></path><path d="M1041.3 468L874.4 372L900.4 490Z" fill="#f4f4f4" stroke="#f4f4f4"></path><path d="M819.5 393L639.5 400L788.5 554Z" fill="#f4f4f4" stroke="#f4f4f4"></path><path d="M1080.3 357L874.4 372L1041.3 468Z" fill="#f5f5f5" stroke="#f5f5f5"></path><path d="M770.5 264L639.5 400L819.5 393Z" fill="#f8f8f8" stroke="#f8f8f8"></path><path d="M557.6 468L376.7 537L499.6 648Z" fill="#fdfdfd" stroke="#fdfdfd"></path><path d="M423.7 370L376.7 537L557.6 468Z" fill="#fefefe" stroke="#fefefe"></path><path d="M1440 1502L1440 1439L1336.1 1428Z" fill="#fafafa" stroke="#fafafa"></path><path d="M916.4 1773L1000.3 1750L930.4 1704Z" fill="#fdfdfd" stroke="#fdfdfd"></path><path d="M930.4 1704L1000.3 1750L1002.3 1619Z" fill="#f3f3f3" stroke="#f3f3f3"></path><path d="M1326.1 1505L1440 1502L1336.1 1428Z" fill="#ffffff" stroke="#ffffff"></path><path d="M1440 778L1440 674L1343.1 779Z" fill="#f5f5f5" stroke="#f5f5f5"></path><path d="M1185.2 352L1041.3 468L1197.2 522Z" fill="#f3f3f3" stroke="#f3f3f3"></path><path d="M653.5 1755L792.5 1619L626.5 1642Z" fill="#f5f5f5" stroke="#f5f5f5"></path><path d="M531.6 1671L653.5 1755L626.5 1642Z" fill="#f5f5f5" stroke="#f5f5f5"></path><path d="M81.9 1325L288.8 1268L250.8 1174Z" fill="#f3f3f3" stroke="#f3f3f3"></path><path d="M300.8 1436L266.8 1503L371.7 1454Z" fill="#f4f4f4" stroke="#f4f4f4"></path><path d="M531.6 1671L488.6 1747L653.5 1755Z" fill="#fefefe" stroke="#fefefe"></path><path d="M1000.3 1750L1219.2 1686L1002.3 1619Z" fill="#fefefe" stroke="#fefefe"></path><path d="M233.8 1627L404.7 1654L401.7 1533Z" fill="#fdfdfd" stroke="#fdfdfd"></path><path d="M1440 1658L1440 1502L1326.1 1505Z" fill="#fdfdfd" stroke="#fdfdfd"></path><path d="M1337.1 465L1197.2 522L1288.1 595Z" fill="#fafafa" stroke="#fafafa"></path><path d="M1185.2 352L1080.3 357L1041.3 468Z" fill="#f5f5f5" stroke="#f5f5f5"></path><path d="M506.6 248L523.6 383L639.5 400Z" fill="#f8f8f8" stroke="#f8f8f8"></path><path d="M639.5 400L523.6 383L557.6 468Z" fill="#f5f5f5" stroke="#f5f5f5"></path><path d="M770.5 264L819.5 393L874.4 372Z" fill="#f3f3f3" stroke="#f3f3f3"></path><path d="M0 1024L92.9 1177L168.9 1028Z" fill="#f4f4f4" stroke="#f4f4f4"></path><path d="M168.9 1028L92.9 1177L250.8 1174Z" fill="#f5f5f5" stroke="#f5f5f5"></path><path d="M257.8 480L283.8 686L376.7 537Z" fill="#f4f4f4" stroke="#f4f4f4"></path><path d="M157.9 594L140.9 751L283.8 686Z" fill="#fafafa" stroke="#fafafa"></path><path d="M283.8 686L140.9 751L307.8 742Z" fill="#ffffff" stroke="#ffffff"></path><path d="M170.9 943L0 1024L168.9 1028Z" fill="#fafafa" stroke="#fafafa"></path><path d="M1262.1 1765L1288.1 1692L1219.2 1686Z" fill="#f8f8f8" stroke="#f8f8f8"></path><path d="M1219.2 1686L1288.1 1692L1182.2 1559Z" fill="#ffffff" stroke="#ffffff"></path><path d="M1262.1 1765L1219.2 1686L1180.2 1830Z" fill="#f5f5f5" stroke="#f5f5f5"></path><path d="M1440 516L1337.1 465L1288.1 595Z" fill="#f9f9f9" stroke="#f9f9f9"></path><path d="M346.7 1787L488.6 1747L404.7 1654Z" fill="#f8f8f8" stroke="#f8f8f8"></path><path d="M404.7 1654L488.6 1747L531.6 1671Z" fill="#fafafa" stroke="#fafafa"></path><path d="M653.5 1755L743.5 1836L792.5 1619Z" fill="#fefefe" stroke="#fefefe"></path><path d="M683.5 1925L743.5 1836L653.5 1755Z" fill="#fdfdfd" stroke="#fdfdfd"></path><path d="M1014.3 1933L1180.2 1830L1000.3 1750Z" fill="#fbfbfb" stroke="#fbfbfb"></path><path d="M81.9 1325L129.9 1384L288.8 1268Z" fill="#f3f3f3" stroke="#f3f3f3"></path><path d="M266.8 1503L233.8 1627L401.7 1533Z" fill="#fbfbfb" stroke="#fbfbfb"></path><path d="M1337.1 465L1185.2 352L1197.2 522Z" fill="#fefefe" stroke="#fefefe"></path><path d="M1080.3 357L955.4 277L874.4 372Z" fill="#fdfdfd" stroke="#fdfdfd"></path><path d="M1027.3 285L955.4 277L1080.3 357Z" fill="#fefefe" stroke="#fefefe"></path><path d="M1176.2 278L1027.3 285L1080.3 357Z" fill="#f5f5f5" stroke="#f5f5f5"></path><path d="M955.4 277L770.5 264L874.4 372Z" fill="#fefefe" stroke="#fefefe"></path><path d="M1440 674L1440 516L1288.1 595Z" fill="#fafafa" stroke="#fafafa"></path><path d="M1275.1 261L1176.2 278L1185.2 352Z" fill="#ffffff" stroke="#ffffff"></path><path d="M92.9 1177L81.9 1325L250.8 1174Z" fill="#fbfbfb" stroke="#fbfbfb"></path><path d="M506.6 248L423.7 370L523.6 383Z" fill="#ffffff" stroke="#ffffff"></path><path d="M523.6 383L423.7 370L557.6 468Z" fill="#ffffff" stroke="#ffffff"></path><path d="M683.5 1925L817.5 1874L743.5 1836Z" fill="#fdfdfd" stroke="#fdfdfd"></path><path d="M743.5 1836L817.5 1874L916.4 1773Z" fill="#fbfbfb" stroke="#fbfbfb"></path><path d="M1180.2 1830L1219.2 1686L1000.3 1750Z" fill="#f7f7f7" stroke="#f7f7f7"></path><path d="M1288.1 1692L1440 1658L1326.1 1505Z" fill="#ffffff" stroke="#ffffff"></path><path d="M300.8 407L257.8 480L376.7 537Z" fill="#f9f9f9" stroke="#f9f9f9"></path><path d="M0 1444L147.9 1510L129.9 1384Z" fill="#fafafa" stroke="#fafafa"></path><path d="M129.9 1384L147.9 1510L266.8 1503Z" fill="#f4f4f4" stroke="#f4f4f4"></path><path d="M257.8 480L157.9 594L283.8 686Z" fill="#fefefe" stroke="#fefefe"></path><path d="M0 885L0 1024L170.9 943Z" fill="#f7f7f7" stroke="#f7f7f7"></path><path d="M147.9 1510L233.8 1627L266.8 1503Z" fill="#f8f8f8" stroke="#f8f8f8"></path><path d="M958.4 1931L1000.3 1750L916.4 1773Z" fill="#fafafa" stroke="#fafafa"></path><path d="M1440 1777L1288.1 1692L1262.1 1765Z" fill="#fafafa" stroke="#fafafa"></path><path d="M1440 1777L1440 1658L1288.1 1692Z" fill="#f3f3f3" stroke="#f3f3f3"></path><path d="M0 885L170.9 943L140.9 751Z" fill="#ffffff" stroke="#ffffff"></path><path d="M92.9 1177L0 1268L81.9 1325Z" fill="#f7f7f7" stroke="#f7f7f7"></path><path d="M812.5 129L673.5 232L770.5 264Z" fill="#fefefe" stroke="#fefefe"></path><path d="M770.5 264L673.5 232L639.5 400Z" fill="#f9f9f9" stroke="#f9f9f9"></path><path d="M812.5 129L770.5 264L955.4 277Z" fill="#fdfdfd" stroke="#fdfdfd"></path><path d="M1185.2 352L1176.2 278L1080.3 357Z" fill="#fefefe" stroke="#fefefe"></path><path d="M1027.3 285L1014.3 170L955.4 277Z" fill="#f7f7f7" stroke="#f7f7f7"></path><path d="M1311.1 344L1185.2 352L1337.1 465Z" fill="#fefefe" stroke="#fefefe"></path><path d="M288.8 288L300.8 407L423.7 370Z" fill="#f5f5f5" stroke="#f5f5f5"></path><path d="M423.7 370L300.8 407L376.7 537Z" fill="#fefefe" stroke="#fefefe"></path><path d="M257.8 480L112.9 559L157.9 594Z" fill="#f5f5f5" stroke="#f5f5f5"></path><path d="M1440 387L1311.1 344L1337.1 465Z" fill="#f3f3f3" stroke="#f3f3f3"></path><path d="M0 1024L0 1194L92.9 1177Z" fill="#fbfbfb" stroke="#fbfbfb"></path><path d="M81.9 1325L0 1444L129.9 1384Z" fill="#fefefe" stroke="#fefefe"></path><path d="M0 787L0 885L140.9 751Z" fill="#ffffff" stroke="#ffffff"></path><path d="M0 1194L0 1268L92.9 1177Z" fill="#fafafa" stroke="#fafafa"></path><path d="M817.5 1874L958.4 1931L916.4 1773Z" fill="#ffffff" stroke="#ffffff"></path><path d="M896.4 2048L958.4 1931L817.5 1874Z" fill="#f7f7f7" stroke="#f7f7f7"></path><path d="M503.6 1929L653.5 1755L488.6 1747Z" fill="#fdfdfd" stroke="#fdfdfd"></path><path d="M503.6 1929L683.5 1925L653.5 1755Z" fill="#ffffff" stroke="#ffffff"></path><path d="M673.5 232L506.6 248L639.5 400Z" fill="#fdfdfd" stroke="#fdfdfd"></path><path d="M282.8 1826L346.7 1787L233.8 1627Z" fill="#f4f4f4" stroke="#f4f4f4"></path><path d="M233.8 1627L346.7 1787L404.7 1654Z" fill="#ffffff" stroke="#ffffff"></path><path d="M166.9 422L112.9 559L257.8 480Z" fill="#fefefe" stroke="#fefefe"></path><path d="M157.9 594L0 645L140.9 751Z" fill="#fdfdfd" stroke="#fdfdfd"></path><path d="M0 645L0 787L140.9 751Z" fill="#f9f9f9" stroke="#f9f9f9"></path><path d="M896.4 2048L1014.3 1933L958.4 1931Z" fill="#f8f8f8" stroke="#f8f8f8"></path><path d="M958.4 1931L1014.3 1933L1000.3 1750Z" fill="#f8f8f8" stroke="#f8f8f8"></path><path d="M1014.3 1933L1195.2 1888L1180.2 1830Z" fill="#f4f4f4" stroke="#f4f4f4"></path><path d="M1180.2 1830L1318.1 1883L1262.1 1765Z" fill="#fafafa" stroke="#fafafa"></path><path d="M1440 516L1440 387L1337.1 465Z" fill="#fbfbfb" stroke="#fbfbfb"></path><path d="M1311.1 344L1275.1 261L1185.2 352Z" fill="#fefefe" stroke="#fefefe"></path><path d="M1196.2 153L1014.3 170L1176.2 278Z" fill="#fefefe" stroke="#fefefe"></path><path d="M1176.2 278L1014.3 170L1027.3 285Z" fill="#ffffff" stroke="#ffffff"></path><path d="M673.5 232L658.5 143L506.6 248Z" fill="#f4f4f4" stroke="#f4f4f4"></path><path d="M1440 269L1275.1 261L1311.1 344Z" fill="#f4f4f4" stroke="#f4f4f4"></path><path d="M0 1268L0 1444L81.9 1325Z" fill="#ffffff" stroke="#ffffff"></path><path d="M147.9 1510L91.9 1624L233.8 1627Z" fill="#fafafa" stroke="#fafafa"></path><path d="M1318.1 1883L1440 1777L1262.1 1765Z" fill="#fefefe" stroke="#fefefe"></path><path d="M300.8 407L166.9 422L257.8 480Z" fill="#fefefe" stroke="#fefefe"></path><path d="M112.9 559L0 645L157.9 594Z" fill="#f9f9f9" stroke="#f9f9f9"></path><path d="M288.8 288L166.9 422L300.8 407Z" fill="#f7f7f7" stroke="#f7f7f7"></path><path d="M927.4 128L812.5 129L955.4 277Z" fill="#f5f5f5" stroke="#f5f5f5"></path><path d="M424.7 1933L503.6 1929L488.6 1747Z" fill="#ffffff" stroke="#ffffff"></path><path d="M765.5 2048L896.4 2048L817.5 1874Z" fill="#f4f4f4" stroke="#f4f4f4"></path><path d="M930.4 0L927.4 128L1051.3 0Z" fill="#fefefe" stroke="#fefefe"></path><path d="M1014.3 170L927.4 128L955.4 277Z" fill="#ffffff" stroke="#ffffff"></path><path d="M812.5 129L658.5 143L673.5 232Z" fill="#f9f9f9" stroke="#f9f9f9"></path><path d="M506.6 248L420.7 209L423.7 370Z" fill="#fdfdfd" stroke="#fdfdfd"></path><path d="M0 1516L91.9 1624L147.9 1510Z" fill="#f5f5f5" stroke="#f5f5f5"></path><path d="M346.7 1787L424.7 1933L488.6 1747Z" fill="#f8f8f8" stroke="#f8f8f8"></path><path d="M0 478L0 645L112.9 559Z" fill="#f8f8f8" stroke="#f8f8f8"></path><path d="M1195.2 1888L1318.1 1883L1180.2 1830Z" fill="#f8f8f8" stroke="#f8f8f8"></path><path d="M1265.1 2048L1318.1 1883L1195.2 1888Z" fill="#fefefe" stroke="#fefefe"></path><path d="M115.9 1816L282.8 1826L233.8 1627Z" fill="#fdfdfd" stroke="#fdfdfd"></path><path d="M496.6 160L420.7 209L506.6 248Z" fill="#f8f8f8" stroke="#f8f8f8"></path><path d="M420.7 209L288.8 288L423.7 370Z" fill="#fefefe" stroke="#fefefe"></path><path d="M0 1444L0 1516L147.9 1510Z" fill="#fbfbfb" stroke="#fbfbfb"></path><path d="M658.5 143L496.6 160L506.6 248Z" fill="#fafafa" stroke="#fafafa"></path><path d="M420.7 209L246.8 82L288.8 288Z" fill="#f8f8f8" stroke="#f8f8f8"></path><path d="M282.8 1826L424.7 1933L346.7 1787Z" fill="#ffffff" stroke="#ffffff"></path><path d="M765.5 2048L817.5 1874L683.5 1925Z" fill="#f4f4f4" stroke="#f4f4f4"></path><path d="M1275.1 261L1196.2 153L1176.2 278Z" fill="#fbfbfb" stroke="#fbfbfb"></path><path d="M1300.1 132L1196.2 153L1275.1 261Z" fill="#fdfdfd" stroke="#fdfdfd"></path><path d="M765.5 2048L683.5 1925L671.5 2048Z" fill="#fbfbfb" stroke="#fbfbfb"></path><path d="M1014.3 1933L1074.3 2048L1195.2 1888Z" fill="#f7f7f7" stroke="#f7f7f7"></path><path d="M671.5 2048L683.5 1925L519.6 2048Z" fill="#f9f9f9" stroke="#f9f9f9"></path><path d="M1440 387L1440 269L1311.1 344Z" fill="#fefefe" stroke="#fefefe"></path><path d="M519.6 2048L683.5 1925L503.6 1929Z" fill="#fefefe" stroke="#fefefe"></path><path d="M896.4 2048L1074.3 2048L1014.3 1933Z" fill="#ffffff" stroke="#ffffff"></path><path d="M0 1516L0 1623L91.9 1624Z" fill="#f4f4f4" stroke="#f4f4f4"></path><path d="M91.9 1624L115.9 1816L233.8 1627Z" fill="#fafafa" stroke="#fafafa"></path><path d="M352.7 2048L519.6 2048L424.7 1933Z" fill="#f8f8f8" stroke="#f8f8f8"></path><path d="M0 366L0 478L166.9 422Z" fill="#fdfdfd" stroke="#fdfdfd"></path><path d="M166.9 422L0 478L112.9 559Z" fill="#fbfbfb" stroke="#fbfbfb"></path><path d="M1440 269L1300.1 132L1275.1 261Z" fill="#f7f7f7" stroke="#f7f7f7"></path><path d="M930.4 0L812.5 129L927.4 128Z" fill="#f5f5f5" stroke="#f5f5f5"></path><path d="M496.6 160L431.7 112L420.7 209Z" fill="#f5f5f5" stroke="#f5f5f5"></path><path d="M85.9 255L0 366L166.9 422Z" fill="#f7f7f7" stroke="#f7f7f7"></path><path d="M529.6 0L431.7 112L496.6 160Z" fill="#f3f3f3" stroke="#f3f3f3"></path><path d="M529.6 0L496.6 160L658.5 143Z" fill="#f9f9f9" stroke="#f9f9f9"></path><path d="M772.5 0L658.5 143L812.5 129Z" fill="#f4f4f4" stroke="#f4f4f4"></path><path d="M772.5 0L812.5 129L930.4 0Z" fill="#fdfdfd" stroke="#fdfdfd"></path><path d="M230.8 1955L424.7 1933L282.8 1826Z" fill="#fdfdfd" stroke="#fdfdfd"></path><path d="M424.7 1933L519.6 2048L503.6 1929Z" fill="#f3f3f3" stroke="#f3f3f3"></path><path d="M1074.3 2048L1173.2 2048L1195.2 1888Z" fill="#ffffff" stroke="#ffffff"></path><path d="M1318.1 1883L1440 1947L1440 1777Z" fill="#ffffff" stroke="#ffffff"></path><path d="M0 1801L115.9 1816L91.9 1624Z" fill="#fafafa" stroke="#fafafa"></path><path d="M927.4 128L1014.3 170L1051.3 0Z" fill="#fdfdfd" stroke="#fdfdfd"></path><path d="M1051.3 0L1014.3 170L1196.2 153Z" fill="#ffffff" stroke="#ffffff"></path><path d="M115.9 1816L155.9 1873L282.8 1826Z" fill="#fdfdfd" stroke="#fdfdfd"></path><path d="M1265.1 2048L1440 1947L1318.1 1883Z" fill="#fdfdfd" stroke="#fdfdfd"></path><path d="M1173.2 2048L1265.1 2048L1195.2 1888Z" fill="#ffffff" stroke="#ffffff"></path><path d="M1158.2 0L1051.3 0L1196.2 153Z" fill="#fdfdfd" stroke="#fdfdfd"></path><path d="M772.5 0L637.5 0L658.5 143Z" fill="#f9f9f9" stroke="#f9f9f9"></path><path d="M155.9 1873L230.8 1955L282.8 1826Z" fill="#f9f9f9" stroke="#f9f9f9"></path><path d="M85.9 255L166.9 422L288.8 288Z" fill="#ffffff" stroke="#ffffff"></path><path d="M1440 269L1440 140L1300.1 132Z" fill="#fefefe" stroke="#fefefe"></path><path d="M1300.1 132L1158.2 0L1196.2 153Z" fill="#f9f9f9" stroke="#f9f9f9"></path><path d="M230.8 1955L352.7 2048L424.7 1933Z" fill="#fdfdfd" stroke="#fdfdfd"></path><path d="M1350.1 0L1158.2 0L1300.1 132Z" fill="#f9f9f9" stroke="#f9f9f9"></path><path d="M637.5 0L529.6 0L658.5 143Z" fill="#f4f4f4" stroke="#f4f4f4"></path><path d="M246.8 82L85.9 255L288.8 288Z" fill="#f3f3f3" stroke="#f3f3f3"></path><path d="M246.8 82L420.7 209L431.7 112Z" fill="#f8f8f8" stroke="#f8f8f8"></path><path d="M0 1623L0 1801L91.9 1624Z" fill="#fdfdfd" stroke="#fdfdfd"></path><path d="M115.9 1816L0 1900L155.9 1873Z" fill="#fbfbfb" stroke="#fbfbfb"></path><path d="M140.9 2048L272.8 2048L230.8 1955Z" fill="#fafafa" stroke="#fafafa"></path><path d="M230.8 1955L272.8 2048L352.7 2048Z" fill="#ffffff" stroke="#ffffff"></path><path d="M529.6 0L435.7 0L431.7 112Z" fill="#f3f3f3" stroke="#f3f3f3"></path><path d="M140.9 2048L230.8 1955L155.9 1873Z" fill="#fdfdfd" stroke="#fdfdfd"></path><path d="M275.8 0L246.8 82L431.7 112Z" fill="#ffffff" stroke="#ffffff"></path><path d="M1265.1 2048L1440 2048L1440 1947Z" fill="#f7f7f7" stroke="#f7f7f7"></path><path d="M0 169L0 270L85.9 255Z" fill="#f7f7f7" stroke="#f7f7f7"></path><path d="M85.9 255L0 270L0 366Z" fill="#f3f3f3" stroke="#f3f3f3"></path><path d="M1440 140L1350.1 0L1300.1 132Z" fill="#ffffff" stroke="#ffffff"></path><path d="M0 1801L0 1900L115.9 1816Z" fill="#fbfbfb" stroke="#fbfbfb"></path><path d="M435.7 0L275.8 0L431.7 112Z" fill="#ffffff" stroke="#ffffff"></path><path d="M246.8 82L86.9 109L85.9 255Z" fill="#f9f9f9" stroke="#f9f9f9"></path><path d="M0 1900L140.9 2048L155.9 1873Z" fill="#ffffff" stroke="#ffffff"></path><path d="M1440 140L1440 0L1350.1 0Z" fill="#f7f7f7" stroke="#f7f7f7"></path><path d="M134.9 0L86.9 109L246.8 82Z" fill="#f4f4f4" stroke="#f4f4f4"></path><path d="M86.9 109L0 169L85.9 255Z" fill="#f5f5f5" stroke="#f5f5f5"></path><path d="M275.8 0L134.9 0L246.8 82Z" fill="#f7f7f7" stroke="#f7f7f7"></path><path d="M86.9 109L0 0L0 169Z" fill="#fafafa" stroke="#fafafa"></path><path d="M0 1900L0 2048L140.9 2048Z" fill="#f8f8f8" stroke="#f8f8f8"></path><path d="M134.9 0L0 0L86.9 109Z" fill="#fbfbfb" stroke="#fbfbfb"></path></g></svg>