<svg width="68" height="68" viewBox="0 0 68 68" fill="none" xmlns="http://www.w3.org/2000/svg">
<path d="M0 0H67.0381V67.0381H0V0Z" fill="white" fill-opacity="0.01"/>
<path fill-rule="evenodd" clip-rule="evenodd" d="M26.331 12.7314C15.8136 19.486 9.9707 27.3475 8.80232 36.3162C6.98343 50.2784 19.4695 57.1125 25.7961 50.9721C32.1227 44.8318 28.3303 37.0378 23.7492 34.9074C19.1681 32.7768 16.3666 33.5189 16.8553 30.672C17.344 27.825 23.8615 19.9315 29.5874 16.2555C29.9673 15.9324 30.1118 15.3056 29.746 14.8302C29.5054 14.5174 29.0335 13.904 28.3303 12.99C27.7154 12.1908 27.1263 12.2207 26.331 12.7314Z" fill="#FF9F46"/>
<path fill-rule="evenodd" clip-rule="evenodd" d="M54.02 12.7314C43.5027 19.486 37.6598 27.3475 36.4913 36.3162C34.6725 50.2784 47.1586 57.1125 53.4852 50.9721C59.8118 44.8318 56.0194 37.0378 51.4383 34.9074C46.8572 32.7768 44.0556 33.5189 44.5444 30.672C45.0331 27.825 51.5506 19.9315 57.2765 16.2555C57.6564 15.9324 57.8009 15.3056 57.435 14.8302C57.1945 14.5174 56.7226 13.904 56.0194 12.99C55.4044 12.1908 54.8154 12.2207 54.02 12.7314Z" fill="#FF9F46"/>
</svg>
