<svg width="151" height="151" viewBox="0 0 151 151" fill="none" xmlns="http://www.w3.org/2000/svg">
<path d="M66.0625 119.542C95.5981 119.542 119.542 95.598 119.542 66.0624C119.542 36.5268 95.5981 12.5833 66.0625 12.5833C36.5269 12.5833 12.5833 36.5268 12.5833 66.0624C12.5833 95.598 36.5269 119.542 66.0625 119.542Z" fill="#FF8A1E" stroke="#21222B" stroke-width="11.5956" stroke-linejoin="round"/>
<path d="M83.8579 45.1211C79.3036 40.5669 73.012 37.7501 66.0625 37.7501C59.1131 37.7501 52.8214 40.5669 48.2669 45.1211" fill="#FF8A1E"/>
<path d="M83.8579 45.1211C79.3036 40.5669 73.012 37.7501 66.0625 37.7501C59.1131 37.7501 52.8214 40.5669 48.2669 45.1211" stroke="#FF9F46" stroke-width="11.5956" stroke-linecap="round" stroke-linejoin="round"/>
<path d="M104.51 104.51L131.204 131.203Z" fill="#FF8A1E"/>
<path d="M104.51 104.51L131.204 131.203" stroke="#21222B" stroke-width="11.5956" stroke-linecap="round" stroke-linejoin="round"/>
</svg>
