<svg width="151" height="151" viewBox="0 0 151 151" fill="none" xmlns="http://www.w3.org/2000/svg">
<path d="M44.0417 106.958C52.7286 106.958 59.7708 99.9161 59.7708 91.2292C59.7708 82.5422 52.7286 75.5 44.0417 75.5C35.3547 75.5 28.3125 82.5422 28.3125 91.2292C28.3125 99.9161 35.3547 106.958 44.0417 106.958Z" fill="#FF9F46" stroke="#21222B" stroke-width="15.1797" stroke-linecap="round" stroke-linejoin="round"/>
<path d="M106.958 106.958C115.645 106.958 122.687 99.9161 122.687 91.2292C122.687 82.5422 115.645 75.5 106.958 75.5C98.2713 75.5 91.2292 82.5422 91.2292 91.2292C91.2292 99.9161 98.2713 106.958 106.958 106.958Z" fill="#FF9F46" stroke="#21222B" stroke-width="15.1797" stroke-linecap="round" stroke-linejoin="round"/>
<path d="M75.5 44.0417C84.187 44.0417 91.2292 36.9995 91.2292 28.3125C91.2292 19.6256 84.187 12.5834 75.5 12.5834C66.813 12.5834 59.7708 19.6256 59.7708 28.3125C59.7708 36.9995 66.813 44.0417 75.5 44.0417Z" fill="#FF9F46" stroke="#21222B" stroke-width="15.1797" stroke-linecap="round" stroke-linejoin="round"/>
<path d="M75.5 138.417C75.5 121.043 61.4155 106.958 44.0416 106.958C26.6677 106.958 12.5833 121.043 12.5833 138.417" stroke="#21222B" stroke-width="15.1797" stroke-linecap="round" stroke-linejoin="round"/>
<path d="M138.417 138.417C138.417 121.043 124.332 106.958 106.958 106.958C89.5845 106.958 75.5 121.043 75.5 138.417" stroke="#21222B" stroke-width="15.1797" stroke-linecap="round" stroke-linejoin="round"/>
<path d="M106.958 75.5C106.958 58.1262 92.8738 44.0416 75.5 44.0416C58.1262 44.0416 44.0417 58.1262 44.0417 75.5" stroke="#21222B" stroke-width="15.1797" stroke-linecap="round" stroke-linejoin="round"/>
</svg>
